<svg width="800" height="800" viewBox="0 0 24 24" fill="none" xmlns="http://www.w3.org/2000/svg">
<path d="M10.5 7.25C10.3674 7.25 10.2402 7.30268 10.1464 7.39645C10.0527 7.49021 10 7.61739 10 7.75C10 7.88261 10.0527 8.00979 10.1464 8.10355C10.2402 8.19732 10.3674 8.25 10.5 8.25H13.5C13.6326 8.25 13.7598 8.19732 13.8536 8.10355C13.9473 8.00979 14 7.88261 14 7.75C14 7.61739 13.9473 7.49021 13.8536 7.39645C13.7598 7.30268 13.6326 7.25 13.5 7.25H10.5ZM9.5 12.75C9.5 13.0152 9.39464 13.2696 9.20711 13.4571C9.01957 13.6446 8.76522 13.75 8.5 13.75C8.23478 13.75 7.98043 13.6446 7.79289 13.4571C7.60536 13.2696 7.5 13.0152 7.5 12.75C7.5 12.4848 7.60536 12.2304 7.79289 12.0429C7.98043 11.8554 8.23478 11.75 8.5 11.75C8.76522 11.75 9.01957 11.8554 9.20711 12.0429C9.39464 12.2304 9.5 12.4848 9.5 12.75ZM9.5 16.25C9.5 16.5152 9.39464 16.7696 9.20711 16.9571C9.01957 17.1446 8.76522 17.25 8.5 17.25C8.23478 17.25 7.98043 17.1446 7.79289 16.9571C7.60536 16.7696 7.5 16.5152 7.5 16.25C7.5 15.9848 7.60536 15.7304 7.79289 15.5429C7.98043 15.3554 8.23478 15.25 8.5 15.25C8.76522 15.25 9.01957 15.3554 9.20711 15.5429C9.39464 15.7304 9.5 15.9848 9.5 16.25ZM12 13.75C12.2652 13.75 12.5196 13.6446 12.7071 13.4571C12.8946 13.2696 13 13.0152 13 12.75C13 12.4848 12.8946 12.2304 12.7071 12.0429C12.5196 11.8554 12.2652 11.75 12 11.75C11.7348 11.75 11.4804 11.8554 11.2929 12.0429C11.1054 12.2304 11 12.4848 11 12.75C11 13.0152 11.1054 13.2696 11.2929 13.4571C11.4804 13.6446 11.7348 13.75 12 13.75ZM13 16.25C13 16.5152 12.8946 16.7696 12.7071 16.9571C12.5196 17.1446 12.2652 17.25 12 17.25C11.7348 17.25 11.4804 17.1446 11.2929 16.9571C11.1054 16.7696 11 16.5152 11 16.25C11 15.9848 11.1054 15.7304 11.2929 15.5429C11.4804 15.3554 11.7348 15.25 12 15.25C12.2652 15.25 12.5196 15.3554 12.7071 15.5429C12.8946 15.7304 13 15.9848 13 16.25ZM15.5 13.75C15.7652 13.75 16.0196 13.6446 16.2071 13.4571C16.3946 13.2696 16.5 13.0152 16.5 12.75C16.5 12.4848 16.3946 12.2304 16.2071 12.0429C16.0196 11.8554 15.7652 11.75 15.5 11.75C15.2348 11.75 14.9804 11.8554 14.7929 12.0429C14.6054 12.2304 14.5 12.4848 14.5 12.75C14.5 13.0152 14.6054 13.2696 14.7929 13.4571C14.9804 13.6446 15.2348 13.75 15.5 13.75Z" fill="#778899"/>
<path fill-rule="evenodd" clip-rule="evenodd" d="M8 3.5C8.13261 3.5 8.25979 3.55268 8.35355 3.64645C8.44732 3.74021 8.5 3.86739 8.5 4V5H15.5V4C15.5 3.86739 15.5527 3.74021 15.6464 3.64645C15.7402 3.55268 15.8674 3.5 16 3.5C16.1326 3.5 16.2598 3.55268 16.3536 3.64645C16.4473 3.74021 16.5 3.86739 16.5 4V5.003C16.7447 5.005 16.9627 5.01367 17.154 5.029C17.519 5.059 17.839 5.122 18.135 5.272C18.6053 5.51189 18.9875 5.89451 19.227 6.365C19.378 6.661 19.441 6.981 19.471 7.345C19.5 7.7 19.5 8.137 19.5 8.679V16.321C19.5 16.863 19.5 17.301 19.471 17.654C19.441 18.019 19.378 18.339 19.227 18.635C18.9874 19.1051 18.6051 19.4874 18.135 19.727C17.839 19.878 17.519 19.941 17.155 19.971C16.8 20 16.363 20 15.822 20H8.179C7.637 20 7.199 20 6.846 19.971C6.481 19.941 6.161 19.878 5.865 19.727C5.39451 19.4875 5.01189 19.1053 4.772 18.635C4.622 18.339 4.559 18.019 4.529 17.655C4.5 17.3 4.5 16.862 4.5 16.32V8.68C4.5 8.205 4.5 7.812 4.52 7.483L4.529 7.347C4.559 6.982 4.622 6.662 4.772 6.366C5.01172 5.89535 5.39435 5.51272 5.865 5.273C6.161 5.123 6.481 5.06 6.845 5.03C7.03767 5.01467 7.256 5.006 7.5 5.004V4C7.5 3.86739 7.55268 3.74021 7.64645 3.64645C7.74021 3.55268 7.86739 3.5 8 3.5ZM7.5 6.5V6.003C7.3088 6.00458 7.11771 6.01225 6.927 6.026C6.625 6.05 6.451 6.096 6.319 6.163C6.03651 6.30685 5.80685 6.53651 5.663 6.819C5.596 6.951 5.55 7.125 5.526 7.427C5.5 7.736 5.5 8.132 5.5 8.7V9.25H18.5V8.7C18.5 8.132 18.5 7.736 18.474 7.427C18.45 7.125 18.404 6.951 18.337 6.819C18.1931 6.53651 17.9635 6.30685 17.681 6.163C17.549 6.096 17.375 6.05 17.073 6.026C16.8823 6.01225 16.6912 6.00458 16.5 6.003V6.5C16.5 6.63261 16.4473 6.75979 16.3536 6.85355C16.2598 6.94732 16.1326 7 16 7C15.8674 7 15.7402 6.94732 15.6464 6.85355C15.5527 6.75979 15.5 6.63261 15.5 6.5V6H8.5V6.5C8.5 6.63261 8.44732 6.75979 8.35355 6.85355C8.25979 6.94732 8.13261 7 8 7C7.86739 7 7.74021 6.94732 7.64645 6.85355C7.55268 6.75979 7.5 6.63261 7.5 6.5ZM18.5 10.25H5.5V16.3C5.5 16.868 5.5 17.265 5.526 17.573C5.55 17.875 5.596 18.049 5.663 18.181C5.80685 18.4635 6.03651 18.6931 6.319 18.837C6.451 18.904 6.625 18.95 6.927 18.974C7.236 19 7.632 19 8.2 19H15.8C16.368 19 16.765 19 17.073 18.974C17.375 18.95 17.549 18.904 17.681 18.837C17.9635 18.6931 18.1931 18.4635 18.337 18.181C18.404 18.049 18.45 17.875 18.474 17.573C18.5 17.265 18.5 16.868 18.5 16.3V10.25Z" fill="#778899"/>
</svg>
